HIERARCHY
ROOT Reference
{
  OFFSET 0 0 0
  CHANNELS 6 Xposition Yposition Zposition Zrotation Xrotation Yrotation
  JOINT Hips
  {
    OFFSET 251.394 724.17 483.536
    CHANNELS 3 Zrotation Xrotation Yrotation
    JOINT RightUpLeg
    {
      OFFSET -0.450515 -23.4426 -1.37224
      CHANNELS 3 Zrotation Xrotation Yrotation
      JOINT RightLeg
      {
        OFFSET 112.821 0.0872427 -0.321027
        CHANNELS 3 Zrotation Xrotation Yrotation
        JOINT RightFoot
        {
          OFFSET 105.718 0.000193788 0.0213165
          CHANNELS 3 Zrotation Xrotation Yrotation
          JOINT RightToeBase
          {
            OFFSET 37.638 -0.000116272 0.00224792
            CHANNELS 3 Zrotation Xrotation Yrotation
            JOINT RightToeEnd
            {
              OFFSET 21.2112 0.114605 -0.000138184
              CHANNELS 3 Zrotation Xrotation Yrotation
              End Site
              {
                OFFSET 0 0 0
              }
            }
          }
        }
      }
    }
    JOINT LeftUpLeg
    {
      OFFSET -0.449508 23.4315 -1.37054
      CHANNELS 3 Zrotation Xrotation Yrotation
      JOINT LeftLeg
      {
        OFFSET 112.821 -0.0485242 -0.372458
        CHANNELS 3 Zrotation Xrotation Yrotation
        JOINT LeftFoot
        {
          OFFSET 105.716 0.00496094 -0.0229443
          CHANNELS 3 Zrotation Xrotation Yrotation
          JOINT LeftToeBase
          {
            OFFSET 37.639 0 0.00158905
            CHANNELS 3 Zrotation Xrotation Yrotation
            JOINT LeftToeEnd
            {
              OFFSET 21.2113 -0.125031 -0.00017438
              CHANNELS 3 Zrotation Xrotation Yrotation
              End Site
              {
                OFFSET 0 0 0
              }
            }
          }
        }
      }
    }
    JOINT Spine
    {
      OFFSET -5.01225 0.000463591 -9.60395
      CHANNELS 3 Zrotation Xrotation Yrotation
      JOINT Spine1
      {
        OFFSET 26.0222 -0.000271301 -0.000155029
        CHANNELS 3 Zrotation Xrotation Yrotation
        JOINT Spine2
        {
          OFFSET 27.173 -0.000155029 -0.000310058
          CHANNELS 3 Zrotation Xrotation Yrotation
          JOINT Spine3
          {
            OFFSET 36.3953 -0.000232544 7.75146e-005
            CHANNELS 3 Zrotation Xrotation Yrotation
            JOINT Neck
            {
              OFFSET 36.4331 0 -3.00261
              CHANNELS 3 Zrotation Xrotation Yrotation
              JOINT Head
              {
                OFFSET 23.0407 -0.000232544 -0.000310058
                CHANNELS 3 Zrotation Xrotation Yrotation
                End Site
                {
                  OFFSET 0 0 0
                }
              }
            }
            JOINT LeftShoulder
            {
              OFFSET 20.1317 6.74168 -12.6061
              CHANNELS 3 Zrotation Xrotation Yrotation
              JOINT LeftArm
              {
                OFFSET 34.2172 -5.81359e-005 7.75146e-005
                CHANNELS 3 Zrotation Xrotation Yrotation
                JOINT LeftForeArm
                {
                  OFFSET 65.4129 -0.0821605 0.0585235
                  CHANNELS 3 Zrotation Xrotation Yrotation
                  JOINT LeftHand
                  {
                    OFFSET 67.3883 0.0359667 0.0112396
                    CHANNELS 3 Zrotation Xrotation Yrotation
                    JOINT LeftHandThumb1
                    {
                      OFFSET 8.78386 2.85353 -6.05362
                      CHANNELS 3 Zrotation Xrotation Yrotation
                      JOINT LeftHandThumb2
                      {
                        OFFSET 8.25498 -0.000116272 -0.000174407
                        CHANNELS 3 Zrotation Xrotation Yrotation
                        JOINT LeftHandThumb3
                        {
                          OFFSET 7.24822 0.000310058 5.81358e-005
                          CHANNELS 3 Zrotation Xrotation Yrotation
                          JOINT LeftHandThumb4
                          {
                            OFFSET 7.0004 -3.87568e-005 -0.000310057
                            CHANNELS 3 Zrotation Xrotation Yrotation
                            End Site
                            {
                              OFFSET 0 0 0
                            }
                          }
                        }
                      }
                    }
                    JOINT LeftHandIndex1
                    {
                      OFFSET 24.0991 -1.01537 -5.40558
                      CHANNELS 3 Zrotation Xrotation Yrotation
                      JOINT LeftHandIndex2
                      {
                        OFFSET 7.26759 -0.000290679 -0.000465086
                        CHANNELS 3 Zrotation Xrotation Yrotation
                        JOINT LeftHandIndex3
                        {
                          OFFSET 7.13628 -1.93787e-005 0.000232543
                          CHANNELS 3 Zrotation Xrotation Yrotation
                          JOINT LeftHandIndex4
                          {
                            OFFSET 5.46699 9.68932e-005 -0.000387571
                            CHANNELS 3 Zrotation Xrotation Yrotation
                            End Site
                            {
                              OFFSET 0 0 0
                            }
                          }
                        }
                      }
                    }
                    JOINT LeftHandMiddle1
                    {
                      OFFSET 24.4604 -2.52837 0.918567
                      CHANNELS 3 Zrotation Xrotation Yrotation
                      JOINT LeftHandMiddle2
                      {
                        OFFSET 7.41627 -5.81359e-005 0.000116271
                        CHANNELS 3 Zrotation Xrotation Yrotation
                        JOINT LeftHandMiddle3
                        {
                          OFFSET 8.76829 3.87573e-005 -7.75142e-005
                          CHANNELS 3 Zrotation Xrotation Yrotation
                          JOINT LeftHandMiddle4
                          {
                            OFFSET 6.07588 -0.00013565 -5.81356e-005
                            CHANNELS 3 Zrotation Xrotation Yrotation
                            End Site
                            {
                              OFFSET 0 0 0
                            }
                          }
                        }
                      }
                    }
                    JOINT LeftHandRing1
                    {
                      OFFSET 22.465 -1.97467 6.3466
                      CHANNELS 3 Zrotation Xrotation Yrotation
                      JOINT LeftHandRing2
                      {
                        OFFSET 7.36666 -0.000232544 0.000387571
                        CHANNELS 3 Zrotation Xrotation Yrotation
                        JOINT LeftHandRing3
                        {
                          OFFSET 8.07624 -0.000465087 -0.000203475
                          CHANNELS 3 Zrotation Xrotation Yrotation
                          JOINT LeftHandRing4
                          {
                            OFFSET 6.04433 0.00013565 3.87571e-005
                            CHANNELS 3 Zrotation Xrotation Yrotation
                            End Site
                            {
                              OFFSET 0 0 0
                            }
                          }
                        }
                      }
                    }
                    JOINT LeftHandPinky1
                    {
                      OFFSET 19.5278 0.352933 10.4295
                      CHANNELS 3 Zrotation Xrotation Yrotation
                      JOINT LeftHandPinky2
                      {
                        OFFSET 6.16525 5.8136e-005 -0.000251921
                        CHANNELS 3 Zrotation Xrotation Yrotation
                        JOINT LeftHandPinky3
                        {
                          OFFSET 6.14448 -0.000329434 -0.00510625
                          CHANNELS 3 Zrotation Xrotation Yrotation
                          JOINT LeftHandPinky4
                          {
                            OFFSET 4.98555 0.000116272 0.000116271
                            CHANNELS 3 Zrotation Xrotation Yrotation
                            End Site
                            {
                              OFFSET 0 0 0
                            }
                          }
                        }
                      }
                    }
                  }
                }
              }
            }
            JOINT RightShoulder
            {
              OFFSET 20.1309 -6.74152 -12.6063
              CHANNELS 3 Zrotation Xrotation Yrotation
              JOINT RightArm
              {
                OFFSET 34.2171 7.75146e-005 7.75146e-005
                CHANNELS 3 Zrotation Xrotation Yrotation
                JOINT RightForeArm
                {
                  OFFSET 65.4492 0.242543 -0.176501
                  CHANNELS 3 Zrotation Xrotation Yrotation
                  JOINT RightHand
                  {
                    OFFSET 67.3888 -0.0867388 0.0597442
                    CHANNELS 3 Zrotation Xrotation Yrotation
                    JOINT RightHandThumb1
                    {
                      OFFSET 8.78307 -2.85357 -6.05302
                      CHANNELS 3 Zrotation Xrotation Yrotation
                      JOINT RightHandThumb2
                      {
                        OFFSET 8.25493 -7.75145e-005 0
                        CHANNELS 3 Zrotation Xrotation Yrotation
                        JOINT RightHandThumb3
                        {
                          OFFSET 7.24797 -0.000174408 0.000155029
                          CHANNELS 3 Zrotation Xrotation Yrotation
                          JOINT RightHandThumb4
                          {
                            OFFSET 7.00062 0 0
                            CHANNELS 3 Zrotation Xrotation Yrotation
                            End Site
                            {
                              OFFSET 0 0 0
                            }
                          }
                        }
                      }
                    }
                    JOINT RightHandIndex1
                    {
                      OFFSET 24.0991 1.01525 -5.40578
                      CHANNELS 3 Zrotation Xrotation Yrotation
                      JOINT RightHandIndex2
                      {
                        OFFSET 7.26773 7.75144e-005 0.000232543
                        CHANNELS 3 Zrotation Xrotation Yrotation
                        JOINT RightHandIndex3
                        {
                          OFFSET 7.13572 -0.000310058 3.87571e-005
                          CHANNELS 3 Zrotation Xrotation Yrotation
                          JOINT RightHandIndex4
                          {
                            OFFSET 5.46717 0 3.87572e-005
                            CHANNELS 3 Zrotation Xrotation Yrotation
                            End Site
                            {
                              OFFSET 0 0 0
                            }
                          }
                        }
                      }
                    }
                    JOINT RightHandMiddle1
                    {
                      OFFSET 24.4603 2.52899 0.918547
                      CHANNELS 3 Zrotation Xrotation Yrotation
                      JOINT RightHandMiddle2
                      {
                        OFFSET 7.41641 -0.000116272 -0.000116272
                        CHANNELS 3 Zrotation Xrotation Yrotation
                        JOINT RightHandMiddle3
                        {
                          OFFSET 8.76765 -3.87577e-005 0.000232543
                          CHANNELS 3 Zrotation Xrotation Yrotation
                          JOINT RightHandMiddle4
                          {
                            OFFSET 6.07609 -0.000193787 -0.000116271
                            CHANNELS 3 Zrotation Xrotation Yrotation
                            End Site
                            {
                              OFFSET 0 0 0
                            }
                          }
                        }
                      }
                    }
                    JOINT RightHandRing1
                    {
                      OFFSET 22.465 1.97571 6.34696
                      CHANNELS 3 Zrotation Xrotation Yrotation
                      JOINT RightHandRing2
                      {
                        OFFSET 7.36684 0.000193786 0.000155029
                        CHANNELS 3 Zrotation Xrotation Yrotation
                        JOINT RightHandRing3
                        {
                          OFFSET 8.07614 -0.000271301 0
                          CHANNELS 3 Zrotation Xrotation Yrotation
                          JOINT RightHandRing4
                          {
                            OFFSET 6.04468 0.000232543 0
                            CHANNELS 3 Zrotation Xrotation Yrotation
                            End Site
                            {
                              OFFSET 0 0 0
                            }
                          }
                        }
                      }
                    }
                    JOINT RightHandPinky1
                    {
                      OFFSET 19.5277 -0.352346 10.4296
                      CHANNELS 3 Zrotation Xrotation Yrotation
                      JOINT RightHandPinky2
                      {
                        OFFSET 6.16508 0 0.000232543
                        CHANNELS 3 Zrotation Xrotation Yrotation
                        JOINT RightHandPinky3
                        {
                          OFFSET 6.14396 -0.000155048 -0.0048834
                          CHANNELS 3 Zrotation Xrotation Yrotation
                          JOINT RightHandPinky4
                          {
                            OFFSET 4.98577 -7.75146e-005 -7.75143e-005
                            CHANNELS 3 Zrotation Xrotation Yrotation
                            End Site
                            {
                              OFFSET 0 0 0
                            }
                          }
                        }
                      }
                    }
                  }
                }
              }
            }
          }
        }
      }
    }
  }
}
MOTION
Frames:	4
Frame Time:	0.0333333
0 0 0 -90 -7.01671e-015 -180 5.8182 12.2147 -151.942 -173.954 -4.4141 -131.055 -1.26285 -3.44767 -21.2904 -9.2613 13.2664 36.8369 -6.21595 4.87223 59.5578 -2.06585e-005 -8.97852e-005 -86.4974 176.863 15.6023 -124.016 -0.260106 -0.112941 -10.3478 3.70575 -0.500923 22.6071 -0.629603 0.800426 54.2477 2.79173e-005 -4.92099e-005 -86.4974 0.373466 -0.236628 118.382 9.36505 -3.34162 -17.4561 -15.4919 -3.99101 -14.1082 0.0278889 5.49365 -13.5943 -0.219882 -0.672969 23.2814 -25.4867 13.1889 47.4565 87.5363 25.9575 -1.46966 36.3416 -3.22731 72.093 28.3342 -18.0498 126.85 1.88135 42.2988 41.7476 -173.375 -50.1252 136.622 0.000433915 -0.000191443 5.0095 0.000160751 -8.58818e-005 25.7996 0.000182704 -0.00137493 -0.000151115 100.42 79.0802 -71.7825 -0.000160389 -0.000121492 54.6253 0.00176198 -0.000290625 51.8874 -0.000488787 -0.000482061 -0.000537293 15.4716 85.6672 19.759 0.000357226 -0.000264971 65.9844 0.00115264 -0.000599464 28.9974 -0.000413652 -0.000388684 9.1299e-005 16.1783 83.9647 32.3098 0.000449498 -0.000716329 38.6713 0.00216145 -0.000207043 41.1951 -0.000528908 -0.000674923 0.000712951 20.9212 81.3853 5.33363 0.00162183 -0.000892987 45.7782 0.000496496 -0.000100363 33.0153 5.1644e-005 -1.92158e-005 -0.000338788 -76.9825 -20.8471 -29.6508 -41.7784 -7.00095 111.486 21.4463 -4.01488 60.4222 38.0925 23.8711 35.5674 151.482 55.6227 154.056 -0.00018308 -3.00647e-005 1.26391 4.56841e-005 3.10835e-005 39.8409 -0.00233104 -0.00258419 175.017 -100.424 -79.0796 -62.4809 -0.000220833 -0.000243115 49.586 1.1216e-005 -0.000129013 46.5698 -1.52588e-005 -0.000137329 180 -15.4757 -85.6674 18.8149 -0.000237346 3.79894e-006 65.0456 -0.000113212 0.0002198 28.0566 4.57764e-005 -7.62938e-005 -180 -16.1831 -83.9645 31.3652 -4.46456e-005 0.00019847 37.7313 0.00246472 0.00233611 40.2572 -6.10352e-005 -0.000213623 -180 -20.9229 -81.3855 0.509359 -0.000217103 0.000479751 40.9944 -1.8094e-005 3.4626e-005 28.2307 -4.57764e-005 -0.000152588 180 
0 0 0 -90 -7.01671e-015 -180 5.89572 12.2705 -152.288 -174.233 -4.4755 -131.117 -1.31602 -3.42433 -22.2008 -9.52801 13.2784 37.4083 -6.0689 4.82747 58.9239 -2.05197e-005 3.65218e-005 -86.4974 178.058 14.3738 -124.804 -0.264797 -0.111955 -12.0525 3.69265 -0.733429 22.3789 -0.594751 0.796455 53.1714 2.82782e-005 -5.9819e-005 -86.4974 0.376056 -0.240478 118.409 8.57681 -3.30588 -17.4613 -15.2026 -3.97506 -14.2824 0.0479908 5.42528 -13.8686 -0.296374 -0.257546 23.5957 -25.0098 13.0842 47.4878 87.2457 25.9277 -1.6347 37.1492 -1.23067 72.2623 28.777 -18.4147 127.576 3.27961 43.7755 41.0046 -173.375 -50.1252 136.622 0.000433884 -0.000252162 5.0095 0.000160054 -0.000100701 25.7996 0.000182704 -0.00140267 -0.000151115 100.419 79.0802 -71.7821 -0.000160805 -0.00012511 54.6253 0.00176207 -0.000294462 51.8874 -0.000488786 -0.000510736 -0.000537292 15.4721 85.6673 19.7585 0.000356753 -0.000298164 65.9844 0.00115223 -0.000599096 28.9974 -0.000413652 -0.000388684 9.12989e-005 16.1782 83.9646 32.3099 0.000450017 -0.000715747 38.6713 0.0021601 -0.000265755 41.1951 -0.000528906 -0.000674924 0.000712951 20.9209 81.3852 5.3339 0.00162193 -0.000896236 45.7782 0.000496678 -0.000172202 33.0153 5.1644e-005 -2.16307e-005 -0.000338787 -76.8006 -20.9145 -29.1974 -42.0398 -7.03985 110.91 20.5938 -3.49615 60.917 35.0102 21.8158 37.3056 151.482 55.6227 154.056 -0.000183049 -3.2524e-005 1.26391 5.83941e-005 -1.50327e-005 39.8409 -0.00230518 -0.00246258 175.017 -100.424 -79.0796 -62.481 -0.000220856 -0.000241671 49.586 1.05784e-005 -0.000183884 46.5698 -1.52588e-005 -0.000152588 180 -15.4757 -85.6674 18.8149 -0.000237725 1.58323e-006 65.0456 -0.000127541 0.000372496 28.0566 4.57764e-005 -7.62938e-005 -180 -16.183 -83.9645 31.3652 -4.36768e-005 0.000196536 37.7313 0.00254751 0.00247026 40.2572 -6.10351e-005 -0.000213623 -180 -20.9229 -81.3856 0.50935 -0.000215956 0.000414849 40.9944 -2.2427e-005 -7.5689e-005 28.2307 -4.57764e-005 -0.000152588 180 
0 0 0 -90 -7.01671e-015 -180 5.6969 12.2637 -152.743 -174.578 -4.9047 -131.327 -1.37044 -3.39595 -23.1602 -9.322 12.8484 37.7114 -5.94031 4.75995 58.4889 -2.05258e-005 3.92836e-005 -86.4974 178.332 13.4833 -125.902 -0.26739 -0.114787 -12.7111 2.93463 -0.368355 23.0775 -0.571182 0.784135 52.8648 2.8516e-005 -7.75333e-005 -86.4974 0.378452 -0.244652 118.394 7.60444 -3.2581 -17.471 -14.5933 -3.80967 -14.2689 0.0727271 5.33666 -14.1994 -0.415549 0.279998 23.9785 -24.7024 13.1773 47.3979 86.8326 25.8768 -1.93731 38.2697 0.784179 72.2904 28.9194 -18.7039 128.067 4.57396 44.8769 40.3698 -173.375 -50.1252 136.622 0.000433814 -0.000130648 5.00951 0.000160321 -0.000129022 25.7996 0.000182706 -0.00146068 -0.000151115 100.42 79.0802 -71.7829 -0.00016101 -0.000129193 54.6253 0.00176233 -0.000303441 51.8874 -0.000488786 -0.000567368 -0.000537293 15.4721 85.6673 19.7585 0.000356435 -0.000363223 65.9844 0.00115178 -0.000599056 28.9974 -0.000413653 -0.000391099 9.12989e-005 16.1782 83.9646 32.31 0.000448764 -0.000716563 38.6713 0.00215785 -0.000145435 41.1951 -0.000528906 -0.000677338 0.000712951 20.9215 81.3854 5.33333 0.0016216 -0.000904113 45.7782 0.000494465 -2.69997e-005 33.0153 5.1644e-005 -2.40455e-005 -0.000338788 -76.6542 -20.9958 -28.689 -42.2846 -7.26685 110.457 19.7917 -3.06939 61.2999 32.1851 19.7997 38.8522 151.482 55.6226 154.056 -0.000183037 -3.59777e-005 1.2639 3.72355e-005 -0.000135198 39.8409 -0.00229257 -0.00249298 175.017 -100.424 -79.0796 -62.4813 -0.000223369 -0.000243358 49.586 -1.37865e-005 -9.14731e-005 46.5698 -1.52588e-005 -0.000183105 180 -15.4757 -85.6674 18.8149 -0.000240631 -7.69842e-006 65.0455 -0.000122604 0.000377472 28.0566 4.57764e-005 -0.000106811 -180 -16.1831 -83.9645 31.3652 -3.69487e-005 0.000198961 37.7313 0.00254655 0.00240853 40.2572 -6.10351e-005 -0.000213623 -180 -20.923 -81.3856 0.50927 -0.000214035 0.000553893 40.9944 -7.99662e-006 0.000149356 28.2307 -4.57764e-005 -0.000152588 180 
0 0 0 -90 -7.01671e-015 -180 5.21734 12.1895 -153.114 -175.52 -4.93491 -131.511 -1.42358 -3.36635 -24.1112 -9.00318 13.0358 38.0936 -5.7921 4.71751 57.7962 -2.06683e-005 4.45298e-005 -86.4974 177.855 12.9241 -126.816 -0.267428 -0.118811 -12.4334 2.17554 -1.69879 23.3521 -0.546866 0.772707 52.4688 2.80556e-005 -0.000108433 -86.4974 0.380419 -0.249502 118.279 6.96899 -3.13481 -17.5711 -14.2387 -3.55105 -14.2054 0.078947 5.23715 -14.3393 -0.508217 0.694719 24.209 -24.2366 13.2324 47.273 86.517 25.86 -1.96487 38.9191 2.39019 71.8792 29.4068 -18.8318 128.886 5.44632 46.1535 39.8293 -173.375 -50.1252 136.622 0.000433795 -0.000130657 5.00952 0.00016042 -0.000186016 25.7996 0.000182705 -0.0015741 -0.000151115 100.42 79.0802 -71.7829 -0.000161828 -0.000138768 54.6253 0.00176235 -0.000319902 51.8874 -0.000488786 -0.000680248 -0.000537294 15.472 85.6673 19.7586 0.00035461 -0.000233927 65.9844 0.00115132 -0.000598185 28.9974 -0.000413652 -0.000394514 9.1299e-005 16.178 83.9645 32.3102 0.000448191 -0.000716934 38.6713 0.00215628 -0.000147196 41.1951 -0.000528906 -0.000680754 0.000712951 20.9214 81.3854 5.33336 0.00162168 -0.000917268 45.7782 0.000494477 -2.64279e-005 33.0153 5.1644e-005 -2.82282e-005 -0.000338788 -76.8092 -21.0737 -28.3651 -42.4693 -7.69386 110.317 19.1104 -2.75788 61.5308 29.3795 17.7066 40.385 151.482 55.6226 154.056 -0.000183007 -4.2842e-005 1.26391 5.44637e-005 6.76683e-005 39.8409 -0.00229522 -0.00252338 175.017 -100.424 -79.0796 -62.4807 -0.000221411 -0.000239963 49.586 5.92098e-006 -7.37853e-005 46.5698 -1.52588e-005 -0.000228882 180 -15.4757 -85.6674 18.8148 -0.000238028 -8.89602e-006 65.0456 -0.000129375 0.00037292 28.0566 4.57764e-005 -0.000137329 -180 -16.1831 -83.9645 31.3652 -4.27853e-005 0.000188154 37.7313 0.00262986 0.00254505 40.2573 -6.10351e-005 -0.000228882 -180 -20.9231 -81.3856 0.509138 -0.00021666 0.000545994 40.9944 -1.46348e-005 0.000146127 28.2307 -4.57764e-005 -0.000152588 180 
